<?xml version="1.0" encoding="UTF-8"?>
<svg id="Layer_1" xmlns="http://www.w3.org/2000/svg" version="1.1" viewBox="0 0 500 500">
  <!-- Generator: Adobe Illustrator 29.3.1, SVG Export Plug-In . SVG Version: 2.1.0 Build 151)  -->
  <defs>
    <style>
      .st0 {
        fill: #468348;
      }
    </style>
  </defs>
  <g>
    <path d="M133.6,232.95c-1.96.27-3.92.86-4.23,3.57-.26,2.25,1.3,3.21,2.79,3.38,1.99.23,3.14-.92,4.65-3.17,2.18-3.25,3.68-4.6,6.42-4.29,3.03.35,5.03,3.23,4.6,6.95-.2,1.73-.86,3.17-1.46,4.3-.83.14-2.83.26-4.41.28l-.13-.92c2-.36,4.65-1.34,4.99-4.33.24-2.08-1.06-3.51-2.93-3.72-2.22-.25-3.25.83-4.92,3.2-1.99,2.84-3.57,4.38-6.25,4.07-2.56-.29-4.74-2.7-4.3-6.51.18-1.61.8-3.15.98-3.74,1.05,0,2.22.02,4.12,0l.07.91Z"/>
    <path d="M151.47,219.6l-.78-.22c.29-1.88.08-2.18-1.09-2.09-1.19.05-2.74.21-4.67.29l-1.72,6.02c1.13.81,2.09,1.53,3.13,2.25,1.64,1.13,1.97.8,2.91-1.4l.78.22-1.84,6.44-.78-.22c.28-1.82.21-2.32-2.02-4.02l-12.99-9.96.09-.94c5.27-.39,11.09-.81,16.42-1.19,2.68-.2,2.98-.39,3.77-2.3l.78.22-1.97,6.89ZM135.81,218.14c2.14,1.58,4.41,3.25,6.37,4.72l1.49-5.21-7.87.5Z"/>
    <path d="M144.43,189.71c-.58,1.87-.55,2.43,1.38,4.47,1.41,1.51,8.54,9.23,11.2,12.03l-.4.87c-4.95-.41-12.16-1-16.75-1.31-2.29-.17-2.76.16-3.66,1.69l-.74-.34,3.1-6.68.74.34c-.69,2.04-.43,2.29.72,2.38,2.22.23,8.35.74,13.48,1.1-2.75-2.97-6.23-6.69-8.97-9.46-1.26-1.29-1.64-1.08-2.9.95l-.74-.34,2.8-6.05.74.34Z"/>
    <path d="M166.43,181.39c.52.57,2.52,2.93,3.07,3.66l-8.07,11.56-.67-.46c1.38-2.33,1.28-2.64-.67-4l-9.39-6.56c-2.12-1.48-2.42-1.3-3.83.37l-.67-.46,5.08-7.28c1.56-2.24,2.18-3.18,2.36-3.48.61.39,2.46,1.54,3.79,2.33l-.38.8c-.96-.35-1.62-.46-2.3-.55-1.05-.17-1.6.26-2.59,1.69l-1.58,2.26c-.51.74-.48.83.21,1.32l5.25,3.67,1.84-2.64c1.25-1.78.97-2.15-.45-3.57l.51-.74,4.9,3.42-.51.74c-1.93-.89-2.3-.86-3.49.85l-1.83,2.62,4.73,3.3c1.66,1.16,2.17.74,3.03-.43l1.54-2.21c1.01-1.45.96-1.84.71-2.79-.18-.8-.81-1.98-1.29-2.81l.69-.58Z"/>
    <path d="M186.52,162.06c.61,1.32,1.41,3.39,1.67,4.35-.52.68-1.89,2.56-3.55,4-5.23,4.54-10.93,3.38-14.25-.45-3.88-4.47-3.16-10.5,1.74-14.76,1.88-1.63,3.76-2.57,4.58-3.09.94.91,2.24,2.09,3.36,3.04l-.55.74c-1.71-1.09-3.02-1.53-4.53-1.02-.8.23-1.83.86-2.66,1.58-3.61,3.14-3.2,7.46-.06,11.08,3.67,4.23,8.21,5.04,11.76,1.96,2.23-1.94,2.44-3.92,1.65-7.08l.85-.35Z"/>
    <path d="M190.86,142.29c4.31-2.44,10.05-1.33,12.89,3.7,3.07,5.43,1.3,10.89-3.34,13.52-4.84,2.74-10.46,1.06-13.15-3.68-2.56-4.52-1.73-10.52,3.6-13.54ZM190.89,143.5c-2.83,1.6-4.06,5.43-1.38,10.15,2.66,4.69,7.19,6.69,10.77,4.66,3.05-1.73,4.06-5.3,1.3-10.17-3-5.3-7.39-6.51-10.69-4.64Z"/>
    <path d="M230.83,128.44c-1.87.85-2.08,1.15-2.16,3.66-.1,3.05-.26,10.77-.33,16.2l-.95.28c-2.72-3.92-6.16-8.74-8.81-12.44-.21,5.26-.46,10.5-.65,15.21l-.92.27c-2.79-4.38-5.9-9.12-8.83-13.55-1.38-2.04-1.78-2.26-3.65-1.92l-.23-.78,6.88-2.01.23.78c-1.99.83-1.96,1.15-1.16,2.43,2.19,3.44,4.38,6.82,6.67,10.41.23-4.87.49-10.21.57-15.19l.89-.26c2.94,4.28,5.79,8.22,8.79,12.48.08-4.04.22-9.46.12-12.06-.05-1.74-.38-2.03-2.83-1.62l-.23-.78,6.37-1.87.23.78Z"/>
    <path d="M253.86,130.96c-.53-1.9-1.38-3.77-4.1-3.72-2.26.04-3.01,1.71-2.98,3.22.04,2,1.33,2.99,3.76,4.19,3.51,1.73,5.05,3.03,5.1,5.79.06,3.04-2.54,5.42-6.28,5.49-1.74.03-3.26-.43-4.45-.87-.25-.81-.63-2.77-.87-4.33l.89-.25c.62,1.93,1.94,4.43,4.96,4.37,2.09-.04,3.33-1.51,3.3-3.4-.04-2.23-1.25-3.11-3.83-4.45-3.08-1.59-4.81-2.95-4.87-5.65-.05-2.58,2.05-5.06,5.88-5.13,1.62-.03,3.23.37,3.84.48.14,1.04.27,2.2.54,4.08l-.9.19Z"/>
    <path d="M269.46,146.9l.12-.8c1.9.04,2.17-.21,1.93-1.36-.21-1.17-.57-2.69-.91-4.59l-6.2-.91c-.65,1.22-1.24,2.28-1.82,3.4-.9,1.77-.54,2.06,1.78,2.69l-.12.8-6.63-.97.12-.8c1.84.04,2.33-.1,3.71-2.53l8.15-14.19.94-.04c1.09,5.17,2.27,10.89,3.36,16.11.55,2.63.78,2.9,2.78,3.43l-.12.8-7.09-1.04ZM268.83,131.18c-1.28,2.33-2.64,4.8-3.83,6.94l5.37.79-1.53-7.73Z"/>
    <path d="M298.16,135.94c-1.93-.33-2.48-.22-4.25,1.96-1.31,1.6-8.01,9.69-10.43,12.71l-.91-.28c-.25-4.97-.63-12.19-.94-16.78-.14-2.29-.52-2.71-2.16-3.4l.24-.78,7.04,2.18-.24.77c-2.12-.41-2.33-.12-2.26,1.03.07,2.24.38,8.38.7,13.52,2.58-3.12,5.8-7.07,8.19-10.16,1.11-1.42.85-1.77-1.33-2.75l.24-.78,6.37,1.97-.24.78Z"/>
    <path d="M309.33,156.63c-.5.59-2.56,2.89-3.22,3.53l-12.53-6.45.37-.72c2.49,1.05,2.79.91,3.88-1.2l5.24-10.19c1.18-2.29.96-2.57-.88-3.74l.37-.72,7.89,4.06c2.42,1.25,3.44,1.74,3.77,1.87-.31.66-1.2,2.65-1.8,4.07l-.84-.27c.22-1,.24-1.67.23-2.36.03-1.06-.48-1.55-2.02-2.34l-2.45-1.26c-.8-.41-.89-.36-1.28.39l-2.93,5.7,2.86,1.47c1.93.99,2.26.67,3.47-.92l.8.41-2.73,5.31-.8-.41c.62-2.03.55-2.39-1.31-3.35l-2.84-1.46-2.64,5.13c-.93,1.81-.44,2.25.84,2.94l2.4,1.23c1.57.81,1.95.71,2.86.33.77-.29,1.85-1.07,2.61-1.66l.67.6Z"/>
    <path d="M329.46,172.34c-.62.46-3.16,2.22-3.95,2.69l-10.71-9.17.53-.62c2.18,1.6,2.5,1.53,4.05-.27l7.45-8.7c1.68-1.96,1.53-2.28.01-3.85l.53-.62,6.74,5.77c2.07,1.77,2.95,2.49,3.23,2.69-.45.57-1.78,2.3-2.69,3.54l-.75-.46c.44-.92.62-1.57.77-2.24.27-1.03-.1-1.62-1.43-2.75l-2.09-1.79c-.68-.58-.78-.56-1.33.08l-4.17,4.87,2.45,2.09c1.65,1.42,2.04,1.18,3.59-.09l.68.59-3.89,4.54-.68-.58c1.07-1.83,1.08-2.2-.5-3.56l-2.42-2.07-3.76,4.38c-1.32,1.54-.95,2.09.13,3.05l2.05,1.76c1.34,1.15,1.73,1.14,2.71.98.81-.1,2.05-.61,2.92-1.01l.51.74Z"/>
    <path d="M334.21,184.89l.62-.52c1.39,1.3,1.76,1.29,2.34.27.63-1.01,1.37-2.39,2.38-4.03l-4.01-4.81c-1.3.48-2.45.87-3.62,1.32-1.86.72-1.77,1.18-.47,3.19l-.62.52-4.29-5.14.62-.52c1.35,1.25,1.8,1.48,4.46.59l15.54-5.15.73.6c-2.64,4.58-5.56,9.63-8.24,14.25-1.34,2.33-1.35,2.68-.21,4.41l-.62.52-4.59-5.5ZM344.21,172.76c-2.51.89-5.17,1.82-7.48,2.62l3.47,4.16,4.01-6.78Z"/>
    <path d="M347.77,206.51c-.19-.33-.32-.62-.49-.96-.93-1.91-1.02-3.16-.09-5.16.75-1.67,1.81-3.48,2.63-5.03.51-.97.48-1.38-.26-2.66l-.51-.88-3.95,2.27c-2.14,1.23-2.1,1.58-1.15,3.7l-.7.4-3.86-6.71.7-.4c1.43,1.96,1.63,2.07,3.76.84l10.03-5.77c2.14-1.23,2.05-1.55,1.13-3.67l.71-.4,3.69,6.41c1.06,1.83,1.54,3.2,1.46,4.51-.06,1.41-.8,2.74-2.33,3.62-2.16,1.24-4.31.64-6.19-.75-.52.9-1.58,2.95-2.28,4.36-.8,1.7-1.15,2.54-1.45,3.48-.34,1.1-.28,1.83-.1,2.5l-.76.31ZM350.6,192.53c.75,1.31,1.43,2.02,2.32,2.35,1.29.56,2.53.38,3.89-.4,2.69-1.55,2.64-3.9,1.53-5.83-.42-.73-.77-1.1-1.02-1.19-.31-.12-.6-.06-1.25.32l-6.16,3.54.69,1.21Z"/>
    <path d="M366.76,216.17c.78-.57,1.56-1.23,1.93-1.71.57-.71.66-1.05.11-2.55l-1.01-2.72-13.24,4.92c-2.12.79-2.34,1.12-1.54,3.76l-.76.28-2.94-7.91.76-.28c1.1,2.47,1.46,2.58,3.6,1.79l13.24-4.92-.92-2.47c-.56-1.5-.88-1.87-1.87-2.03-.67-.12-1.4-.1-2.54-.08l-.3-.82c1.72-.45,3.49-.92,5.05-1.41l.23.62c-.5.65-.36.94-.08,1.7l4,10.77c.28.76.47.94,1.14,1.15l.24.65c-1.28.47-3.2,1.31-4.72,2.03l-.39-.79Z"/>
    <path d="M375.42,241.28c-.61-2.34-.79-2.55-3.19-2.17l-11.49,1.83c-2.41.38-2.45.65-2.33,3.04l-.8.13-1.22-7.68.8-.13c.67,2.33.76,2.55,3.17,2.17l5.73-.91-1.56-9.8-5.73.91c-2.38.38-2.43.62-2.34,3.02l-.8.13-1.22-7.65.8-.13c.63,2.28.75,2.52,3.16,2.14l11.49-1.83c2.41-.38,2.51-.66,2.37-3.02l.8-.13,1.22,7.65-.8.13c-.57-2.26-.81-2.51-3.19-2.14l-4.55.73,1.56,9.8,4.55-.73c2.38-.38,2.53-.73,2.36-3.05l.8-.13,1.22,7.68-.8.13Z"/>
  </g>
  <g>
    <path d="M159.88,300.55l4.2,6.51-.68.44c-1.4-1.79-1.79-2.02-3.96-.62l-4.19,2.7c.36.46,1.11.77,2.25,1.03,2.17.53,4.88,1.1,6.87,1.4,1.3.2,1.57-.08,1.04-1.22l-.37-.73.68-.44,3.82,5.92-.68.44c-1.4-1.69-1.93-2.24-4.66-2.79-1.18-.28-4.26-.98-6.8-1.55-1,3.27-2.38,7.98-2.9,10.11-.54,2.11-.53,2.55.27,4.17l-.68.44-2.51-3.9c.91-3.24,2-6.74,3.16-10.62.32-1,.1-1.45-.17-1.82l-4.63,2.98c-2.12,1.37-2.15,1.7-1.02,3.83l-.68.44-4.2-6.51.68-.44c1.46,1.89,1.76,1.97,3.88.61l9.51-6.13c2.19-1.41,2.25-1.69,1.1-3.81l.68-.44Z"/>
    <path d="M164.07,337.18l.59-.56c1.46,1.21,1.83,1.18,2.36.13.56-1.05,1.22-2.47,2.12-4.17l-4.3-4.55c-1.27.56-2.39,1.02-3.53,1.54-1.81.83-1.7,1.29-.27,3.21l-.59.56-4.6-4.87.59-.56c1.42,1.17,1.89,1.37,4.48.31l15.18-6.1.76.55c-2.35,4.74-4.95,9.96-7.34,14.73-1.2,2.41-1.18,2.76.06,4.41l-.59.56-4.92-5.2ZM173.3,324.45c-2.45,1.04-5.04,2.14-7.3,3.08l3.73,3.94,3.58-7.02Z"/>
    <path d="M185.79,354.83l.46-.67c2.09,1.15,2.26,1.06,3.99-1.51l6.72-9.74c-4.96,3.03-12.81,7.7-15.09,9.23l-.62-.43c.68-2.73,2.49-11.16,3.64-16.74-6.15,8.09-7.47,9.96-7.78,10.42-.89,1.36-.43,1.96,1.08,3.24l-.46.67-5.67-3.89.46-.67c1.49.81,2.26.92,3.33-.25.87-.95,1.48-1.8,8.09-10.1.95-1.18.99-1.75-.98-3.38l.46-.67,4.16,2.85-3.03,15.75,13.98-8.24,4.18,2.87-.46.67c-2.22-1.17-2.63-1.14-3.73.57l-6.2,9.25c-1.66,2.62-1.67,2.79.29,4.45l-.46.67-6.36-4.36Z"/>
    <path d="M212.24,347.32c3.81,1.47,5.93,3.16,6.99,5.4.82,1.81,1.07,4.08.06,6.68-1.22,3.17-3.51,5.23-6.2,6-2.65.75-5.5.33-8.83-.96l-6.33-2.44.29-.76c2.41.68,2.59.54,3.45-1.68l4.17-10.79c.9-2.33.62-2.56-1.41-3.59l.29-.76,7.52,2.9ZM204.11,360.25c-.78,2.03-.14,2.93,1.89,3.71,4.87,1.88,8.64-.49,10.47-5.22,1.14-2.95,1-5.58-.63-7.7-.94-1.27-2.4-2.17-4.21-2.87-1.22-.47-1.93-.56-2.28-.45-.31.07-.53.32-.94,1.38l-4.3,11.14Z"/>
    <path d="M244.43,356.23c-2.41-.17-2.66-.07-3.07,2.33l-1.95,11.46c-.41,2.4-.17,2.53,2.14,3.19l-.14.8-7.66-1.3.14-.8c2.42.12,2.66.1,3.07-2.3l.97-5.72-9.78-1.66-.97,5.72c-.4,2.37-.19,2.5,2.11,3.18l-.14.8-7.63-1.3.14-.8c2.36.14,2.63.09,3.04-2.31l1.95-11.46c.41-2.4.18-2.59-2.1-3.21l.14-.8,7.63,1.3-.14.8c-2.32-.19-2.64-.04-3.04,2.33l-.77,4.55,9.78,1.66.77-4.55c.4-2.37.12-2.63-2.13-3.21l.14-.8,7.66,1.3-.14.8Z"/>
    <path d="M262.54,369.23c-.16.76-.87,3.76-1.14,4.64l-14.09.32-.02-.81c2.69-.27,2.89-.53,2.83-2.91l-.26-11.46c-.06-2.58-.38-2.72-2.56-2.87l-.02-.81,8.87-.2c2.73-.06,3.86-.12,4.2-.16.04.72.21,2.9.36,4.43l-.87.16c-.29-.98-.59-1.58-.92-2.18-.49-.95-1.16-1.13-2.9-1.09l-2.75.06c-.9.02-.96.11-.94.95l.15,6.41,3.22-.07c2.17-.05,2.31-.49,2.61-2.47l.9-.02.14,5.97-.9.02c-.42-2.08-.66-2.36-2.75-2.32l-3.19.07.13,5.77c.05,2.03.69,2.19,2.14,2.18l2.7-.06c1.77-.04,2.05-.31,2.67-1.08.54-.62,1.12-1.82,1.5-2.7l.88.21Z"/>
    <path d="M283.71,351.63c-1.77.58-2.31.99-2.12,2.32.16.91.36,2.12.91,4.76l2.4,11.38-1.08.23-15.28-12.28,1.5,7.09c.54,2.55.89,3.81,1.12,4.62.36,1.44,1.16,1.71,3.24,1.45l.17.79-6.89,1.46-.17-.79c1.73-.51,2.32-1.08,2.14-2.5-.11-.93-.32-2.21-.87-4.8l-1.53-7.23c-.17-.79-.32-1.24-.96-1.75-.69-.6-1.32-.64-2.74-.49l-.17-.79,4.26-.9,15.04,11.73-1.47-6.95c-.56-2.64-.87-3.85-1.13-4.68-.35-1.26-1.09-1.52-3.39-1.18l-.17-.79,7.01-1.48.17.79Z"/>
    <path d="M303.87,342.93c-1.63.84-2.05,1.53-1.57,2.78.24.62.68,1.76,1.75,4.2l1.26,2.87c1.19,2.71,1.78,4.92.95,7.21-.68,1.85-2.31,3.04-4.14,3.84-1.54.67-3.32,1.08-4.89.69-2.13-.52-3.7-2.02-5.07-5.12l-2.97-6.77c-1.05-2.39-1.33-2.46-3.54-1.71l-.32-.74,6.98-3.06.33.74c-2.07,1.07-2.19,1.37-1.14,3.76l2.91,6.64c1.7,3.88,4.46,5.2,7.65,3.8,3.77-1.65,3.94-4.51,2.01-8.92l-1.19-2.71c-1.07-2.44-1.59-3.42-1.96-4.11-.6-1.16-1.41-1.34-3.42-.59l-.33-.74,6.37-2.8.33.74Z"/>
    <path d="M315.3,339.43c-1.46-1.33-3.17-2.46-5.45-.97-1.89,1.24-1.64,3.05-.82,4.31,1.1,1.67,2.72,1.82,5.42,1.55,3.9-.4,5.89-.11,7.4,2.19,1.67,2.55.73,5.93-2.4,7.98-1.46.95-2.99,1.37-4.24,1.63-.64-.55-2.01-2.01-3.04-3.21l.62-.69c1.55,1.31,4,2.72,6.52,1.07,1.75-1.14,2.02-3.06.99-4.63-1.22-1.87-2.71-1.97-5.61-1.74-3.45.29-5.65.06-7.12-2.2-1.41-2.16-.95-5.37,2.25-7.47,1.36-.89,2.93-1.4,3.5-1.64.67.81,1.4,1.72,2.63,3.17l-.66.64Z"/>
    <path d="M336.88,334.14c.37.68,1.77,3.43,2.13,4.27l-10.52,9.37-.54-.61c1.88-1.94,1.86-2.27.28-4.05l-7.62-8.55c-1.71-1.93-2.05-1.82-3.81-.53l-.54-.61,6.63-5.9c2.04-1.81,2.86-2.59,3.1-2.84.5.52,2.04,2.07,3.14,3.14l-.55.69c-.85-.56-1.47-.82-2.12-1.07-.98-.41-1.62-.11-2.92,1.04l-2.06,1.83c-.67.6-.66.7-.1,1.33l4.26,4.79,2.4-2.14c1.62-1.45,1.44-1.87.39-3.57l.67-.6,3.97,4.46-.67.6c-1.67-1.31-2.04-1.37-3.59.02l-2.38,2.12,3.84,4.31c1.35,1.52,1.94,1.22,3.04.28l2.01-1.79c1.32-1.18,1.36-1.56,1.34-2.55,0-.82-.33-2.11-.61-3.03l.8-.41Z"/>
    <path d="M340.4,308.86c-1.01,1.68-1.12,2.23.27,4.67,1,1.81,6.07,11.01,7.99,14.37l-.6.75c-4.71-1.59-11.56-3.89-15.95-5.29-2.18-.71-2.71-.51-3.96.76l-.63-.51,4.61-5.74.63.51c-1.16,1.82-.96,2.13.13,2.48,2.1.76,7.93,2.72,12.82,4.31-1.96-3.54-4.44-7.99-6.44-11.34-.91-1.55-1.33-1.44-3.05.23l-.63-.51,4.17-5.2.63.51Z"/>
    <path d="M360.24,309.92l-.71-.4c.73-1.75.59-2.1-.56-2.29-1.17-.23-2.72-.45-4.61-.82l-3.1,5.44c.9,1.05,1.67,1.99,2.5,2.93,1.32,1.49,1.72,1.25,3.15-.67l.71.4-3.32,5.82-.71-.4c.7-1.7.76-2.21-1.01-4.38l-10.26-12.75.31-.89c5.21.87,10.97,1.84,16.23,2.74,2.65.44,2.98.33,4.2-1.34l.71.4-3.55,6.22ZM345.37,304.79c1.71,2.04,3.51,4.2,5.07,6.09l2.69-4.71-7.76-1.38Z"/>
  </g>
  <path class="st0" d="M252.04,385.02c-74.05,0-134.29-60.24-134.29-134.29s60.24-134.29,134.29-134.29,134.29,60.24,134.29,134.29-60.24,134.29-134.29,134.29ZM252.04,120.43c-71.84,0-130.29,58.45-130.29,130.29s58.45,130.29,130.29,130.29,130.29-58.45,130.29-130.29-58.45-130.29-130.29-130.29Z"/>
  <g>
    <path class="st0" d="M223.68,211.28c-1.79-.28-6.36-2.33-4.72-4.72.61-.4,4.14-.26,5.18-.22,5,.18,9.4,1.33,14.45.17,1.8-.41,10.3-3.87,11.03-5.08.82-1.36,1.04-5.64,2.07-7.77,2.35-4.83,12.92-10.23,18.24-10.07.5,5.43,1.9,14.32-1.95,18.75-1.49,1.72-5.63,2.75-5.56,4.68.07,1.76,5.52,7.29,7.15,8.46,5.05,3.62,7.57,2.87,13.04,3.96,2.5.5,9.84,1.7,11.67,2.65s.77,2.76-.93,3.37c-5.61,2.02-14.18.61-19.65-1.59-1.63-.65-3.39-2.35-5.06-2.1,3.24,5.15,10.42,5.11,15.84,6.53,1.54.4,8.46,2.03,8.74,3.36.28,1.37-3.68,2.25-4.73,2.37-9.52,1.09-22.1-4.41-26.8-12.92-.72-1.3-1.98-5.85-3.58-5.72-.41.03-2.22,2.27-2.93,2.77-1.15.81-8.61,3.6-9.52,3.34-1-.29-2.49-5.85-2.78-7.09s.17-2.74-.87-3.6c-2.3,3.44-7.63,5.41-11.6,6.33-4.18.97-5.62.51-9.53-.42-3.4-.81-4.58.81-4.15-4.58,5.15-.31,10.8,1.08,15.91.47.9-.11,1.66-.2,1.54-1.36-3.23-.36-7.42.49-10.51,0ZM264.16,190.26c-7.21,1.79-12.1,5.82-9.87,14.01-4.14,2.35-6.41,4.27-5.79,9.5.51,4.3,7.67-2.93,8-4.6.27-1.36-.73-2.63-.17-3.69s3.96-2.09,5.14-2.94c3.75-2.71,4.13-8.19,2.7-12.27Z"/>
    <path class="st0" d="M286.41,235.95c5.28-1.47.88,8.23.62,10.5-1.01,8.93,2.73,8.49,8.01,13.37,8.7,8.04,10.17,17.49,7.75,28.79-1.03,4.79-5.37,15.49-11.95,12.09-2.29-1.18-4.26-8.06-1.86-7.55,2.18,3.67,4.98,3.47,6.72-.45,2.99-6.71,3.76-14.19.89-21.03-3.2-7.62-13.48-8.56-17.6-15.51-.6-1.01-1.48-4.4-2.14-4.6-3.55,1.34-6.74,3.71-10.34,5.24-11.15,4.75-25.39,4.8-33.22,14.66-3.79,4.77-5.93,15.04-14.32,10.73,1.55-1.26,3.55-1.47,4.92-3.12,2.06-2.48,3.24-7.03,5.62-10.04,8.54-10.76,24.56-10.49,36.28-16.51,8.25-4.24,13.7-10.67,20.6-16.57Z"/>
    <path class="st0" d="M318.68,187.21c1.47.87,1.53,5.28,1.43,6.87-.82,12.23-14.69,22.2-26.17,23.04-6.8.5-21.11-.2-19.89-10.04.43-3.43,4.06-4.84,7.02-5.51,10.64-2.43,27.4-1.67,35-11.53.86-1.11,1.19-3.67,2.62-2.82Z"/>
    <path class="st0" d="M221.97,163.47c2.17-.2.24,3.98.14,5.08-.59,6.26-.69,11.94,4.27,16.32,4.42,3.9,17.52,8.07,13.81,15.62-3.2,6.52-14.48,4.22-19.55,1.3-10.3-5.93-14.9-19.14-8.29-29.58,1.29-2.04,7.37-8.54,9.62-8.74Z"/>
    <path class="st0" d="M252.98,315.08c.34-.8.24-2.44.57-3.02.61-1.07,1.85-3.05,2.64-4.29,4.02-6.31,10.95-5.72,13.81-13.93,1.44-4.12.95-8.78,4.93-11.62,1.2-.86,4.45-1.79,4.83-3.24.94-3.58-4.77.67-5.57.75-4.97.46-4.6-6.75-7.14-7.16-1.9-.31-6.54,2.86-8.72,3.79-7.73,3.33-19.49,4.55-24.78,11.46-3.71,4.85-3.87,10.4-9,14.72-3.34,2.81-13.25,7.9-17.42,8.08-.39.02-1.57.15-1.13-.68.32-.6,10.35-4.84,12.23-6.12,1.16-.79,7.32-5.51,5.23-6.88-1.16-.62-3.97.46-4.43-.94-.25-.75-.16-3.9.03-4.76.73-3.22,7.93-4.83,10.8-6.2,3.56-1.69,7.14-4.47,10.71-5.84,4.04-1.54,8.6-2.06,12.83-3.72,5.94-2.33,14.08-8.66,20.47-6.58,2.6.84,8.18,6.6,8.59,9.31.66,4.4-2.15,4.38-4.66,6.47-3.29,2.73-2.58,5.11-3.8,8.73-2.84,8.44-7.6,8.56-13.44,13.4-2.59,2.15-4.24,4.6-6.18,7.24-.4.55-.46,1.25-1.42,1.04Z"/>
    <path class="st0" d="M221.99,269.11c.54.57.83,2.41.37,3.05-.63.89-8.31,1.48-8.32,4.22,0,2.4,4.04,1.41,5.18.25,1.01-1.03.45-2.79,2.88-2.26.77,5.04-4.37,7.62-8.72,7.6-2.72,0-16.04-5.44-18.28-7.21-1.1-.87-2.87-5.13-2.78-6.44.04-.59,2.79-5.62,3.4-6.24,1.14-1.17,3.05-2.05,4.69-2.05,2.97,0,10.66,5.08,14.1,6.52,1.54.64,6.77,1.83,7.48,2.58Z"/>
    <path class="st0" d="M244.93,307.48c-4.42,6.78-7.33,15.21-2.16,22.51,3.17,4.47,3.2-.62,3.93-2.63.63-1.76,1.93-3.46,2.47-5.13.47-1.44.52-4.2.9-4.92.47-.88,2.1,1.05,2.23,1.36.98,2.16-1.35,7.54-1.86,10.2-.57,2.96-.8,6.03-1.04,9.03-12.04,1.33-16.22-13.41-12.02-22.54.64-1.39,5.9-9.31,7.55-7.88Z"/>
    <path class="st0" d="M266.4,232.31c-.01,2.78-.71,4.04,2.23,5.15-1.16,2.67-6.35,2.08-7.18,2.65s.38,3.92-3.88,5.07c-7.2,1.95-9.4-3.18-17.08,1.71-3.32,2.12-5.67,5.33-8.58,7.52s-2.3-.04-1.06-1.95c6.73-10.34,17.7-12,27.8-16.49,1.36-.61,6.98-4.41,7.75-3.66Z"/>
    <path class="st0" d="M239.89,291.92c3.95-.73,9.54,1.16,9.56,5.93.01,3.69-1.98,2.33-4.05,3.6-2.83,1.73-3.46,7.87-7.6,4.44-2.04-1.69-1.06-3.22-1.4-5.32-.2-1.25-.91-2.22-.9-3.62.01-2.57,1.88-4.57,4.39-5.04Z"/>
    <path class="st0" d="M212.27,225.6c.94.91-5.06,9.21-5.73,10.59-2.05,4.19-1.88,8.74-.3,13.12.34.95,1.55,1.87,1.47,2.83s-1.87,4.25-3.21,3.85c-1.24-.37-3.86-7.82-4.1-9.35-.78-4.98.42-8.92,3.19-12.96.86-1.26,7.3-9.43,8.68-8.09Z"/>
    <path class="st0" d="M213.09,248.79c-.42.25-1.19.01-1.71.07-.53-.49,5.53-10.66,5.83-13.18.36-3.02-.67-6.44-.49-8.96.15-2.14,1.82-3.48.59-6.38-.38-.88-1.57-1.27-1.45-2.35,9.24-1.36,7.3,11.25,5.26,16.67-1.54,4.09-4.24,7.32-6.52,10.93-.41.64-1.35,3.1-1.5,3.19Z"/>
    <path class="st0" d="M262.76,285.62c.65.41.21,3.83.02,4.59-1.05,4.33-4,3.31-7.01,5.08-.89.52-1.1,2.22-2.37,1.25-.92-.71-.18-4.2.15-5.27,1.25-4.08,4.99-6.3,9.2-5.66Z"/>
  </g>
</svg>